<svg xmlns="http://www.w3.org/2000/svg" width="82" height="36" fill="none" viewBox="0 0 82 36"><path fill="#333" d="M76.94 17.24h4.2v6.96c-.96.69-2.07 1.22-3.32 1.58-1.24.37-2.5.56-3.74.56a10.1 10.1 0 0 1-4.75-1.1 8.41 8.41 0 0 1-4.51-7.64c0-1.68.4-3.18 1.2-4.51a8.2 8.2 0 0 1 3.33-3.1 10.17 10.17 0 0 1 4.83-1.13c1.56 0 2.97.27 4.22.8a8.14 8.14 0 0 1 3.12 2.28l-3.02 2.73a5.33 5.33 0 0 0-4.08-1.87 4.7 4.7 0 0 0-3.48 1.32 4.66 4.66 0 0 0-1.32 3.48c0 .93.2 1.76.6 2.5.4.72.96 1.28 1.68 1.7a5 5 0 0 0 2.47.6c.91 0 1.77-.18 2.57-.55v-4.61Z"/><path fill="#7859CF" fill-rule="evenodd" d="M58 18c0 2.87-.6 5.59-1.66 8H43c2.46-3.77 5-8.34 5-13A13 13 0 0 0 38.42.45C39.57.15 40.77 0 42 0c8.84 0 16 8.06 16 18Zm-14-5a9 9 0 0 0-9-9c-6.65 0-9 8.5-9 14 0 9.94 7.16 18 16 18 4.74 0 9-2.32 11.93-6H35l1.1-1.39C39.62 24.21 44 18.7 44 13Z" clip-rule="evenodd"/><path fill="#333" d="M1.85 9.2H9.8c1.84 0 3.47.34 4.9 1.03a7.77 7.77 0 0 1 3.3 2.93 8.25 8.25 0 0 1 1.18 4.44 7.77 7.77 0 0 1-4.49 7.37A11.12 11.12 0 0 1 9.8 26H1.86V9.2Zm7.75 13c1.44 0 2.6-.4 3.46-1.22a4.39 4.39 0 0 0 1.32-3.38c0-1.44-.44-2.57-1.32-3.38a4.83 4.83 0 0 0-3.46-1.23h-3v9.22h3Z"/></svg>